<?xml version="1.0" encoding="iso-8859-1"?>
<!-- Uploaded to: SVG Repo, www.svgrepo.com, Generator: SVG Repo Mixer Tools -->
<svg height="800px" width="800px" version="1.1" id="Layer_1" xmlns="http://www.w3.org/2000/svg" xmlns:xlink="http://www.w3.org/1999/xlink" 
	 viewBox="0 0 512 512" xml:space="preserve">
<path style="fill:#FFDB56;" d="M485.911,91.196c-2.57-1.519-5.75-1.566-8.365-0.126l-91.143,50.209l-69.381-71.211
	c-1.703-1.748-4.057-2.673-6.516-2.536c-2.436,0.136-4.695,1.32-6.192,3.248L203.041,201.083l-66.529-22.355
	c-3.366-1.132-7.082-0.034-9.295,2.748l-54.322,68.327L4.511,293.92c-2.409,1.553-3.864,4.222-3.865,7.088L0.563,503.557
	c-0.001,2.238,0.888,4.386,2.47,5.97C4.617,511.111,6.764,512,9.002,512h472.615c4.662,0,8.44-3.779,8.44-8.44V98.462
	C490.057,95.477,488.481,92.714,485.911,91.196z"/>
<path style="fill:#FBA806;" d="M485.911,91.196c-2.57-1.519-5.75-1.566-8.365-0.126l-29.686,16.352V512h33.758
	c4.662,0,8.44-3.779,8.44-8.44V98.462C490.057,95.477,488.481,92.714,485.911,91.196z"/>
<path style="fill:#F77935;" d="M483.023,90.14c-4.053-0.688-8.023,1.659-9.377,5.549l-70.145,201.663l-12.519-27.924
	c-1.033-2.303-3.043-4.024-5.478-4.689c-2.434-0.663-5.041-0.206-7.102,1.255l-41.052,29.079l-17.99-159.196
	c-0.438-3.872-3.469-6.941-7.337-7.427c-3.863-0.479-7.562,1.742-8.941,5.386l-82.316,217.395l-24.035-44.988
	c-1.43-2.678-4.192-4.382-7.227-4.46c-3.073-0.068-5.881,1.481-7.447,4.081l-46.13,76.575l-28.923-84.169
	c-1.128-3.28-4.148-5.537-7.614-5.688c-3.478-0.143-6.672,1.833-8.081,5.004L1.29,500.135c-1.16,2.611-0.92,5.631,0.635,8.027
	C3.483,510.555,6.145,512,9.002,512h472.615c4.662,0,8.44-3.779,8.44-8.44V98.462C490.057,94.343,487.084,90.825,483.023,90.14z"/>
<path style="fill:#D9510D;" d="M483.023,90.14c-4.053-0.688-8.023,1.659-9.377,5.549l-25.787,74.135V512h33.758
	c4.662,0,8.44-3.779,8.44-8.44V98.462C490.057,94.343,487.084,90.825,483.023,90.14z"/>
<path style="fill:#808080;" d="M502.998,512H9.002c-4.662,0-8.44-3.779-8.44-8.44V8.44C0.563,3.779,4.34,0,9.002,0
	s8.44,3.779,8.44,8.44v486.681h485.556c4.662,0,8.44,3.779,8.44,8.44S507.66,512,502.998,512z"/>
</svg>